<svg data-v-0dd9719b="" version="1.0" xmlns="http://www.w3.org/2000/svg" xmlns:xlink="http://www.w3.org/1999/xlink" width="100%" height="100%" viewBox="0 0 340.000000 250.000000" preserveAspectRatio="xMidYMid meet" color-interpolation-filters="sRGB" style="margin: auto;"> <rect data-v-0dd9719b="" x="0" y="0" width="100%" height="100%" fill="#fff" fill-opacity="1" class="background"></rect> <rect data-v-0dd9719b="" x="0" y="0" width="100%" height="100%" fill="url(#watermark)" fill-opacity="1" class="watermarklayer"></rect> <g data-v-0dd9719b="" fill="#3699ea" class="icon-text-wrapper icon-svg-group iconsvg" transform="translate(54.334999084472656,96.67753791814367)"><g class="iconsvg-imagesvg" transform="translate(0,0)"><g><rect fill="#3699ea" fill-opacity="0" stroke-width="2" x="0" y="0" width="60" height="56.644921310763486" class="image-rect"></rect> <svg x="0" y="0" width="60" height="56.644921310763486" filtersec="colorsb6774717172" class="image-svg-svg primary" style="overflow: visible;"><svg xmlns="http://www.w3.org/2000/svg" viewBox="-0.003525275969877839 -0.0038033658638596535 264.3553466796875 249.5738983154297"><g><g fill="#3699ea"><path d="M88.26 14.26a19 19 0 0 0 18.69 5.47l65.67-17a1.38 1.38 0 0 0-.37-2.73L87.36 1a5 5 0 0 0-3.63 8.44zM204.69 14.78a10.81 10.81 0 0 0-14-7l-65.62 23.58a5.34 5.34 0 0 0-.92 9.62l98.48 58.41a4.39 4.39 0 0 0 6.43-5.06zM103 177.28a6.6 6.6 0 0 0 9.88 5.69l99.32-57.07.09-.05a6.62 6.62 0 0 0 .08-11.44L112.1 54.94a6.42 6.42 0 0 0-9.7 5.55zM263.73 136.83a5.62 5.62 0 0 0-5.94-8.11 18.67 18.67 0 0 0-14.57 12.6l-27.67 85.05a.92.92 0 0 0 1.69.7zM258.31 113.62a4.34 4.34 0 0 0 4.7-6.3L217.6 22.4a.76.76 0 0 0-1.39.63L246 103.09a16.74 16.74 0 0 0 12.31 10.53zM75.55 180.29a5.87 5.87 0 0 0 9.24-4.84l-.53-112.18A5.5 5.5 0 0 0 75.34 59L3.2 116.43A8.46 8.46 0 0 0 3.62 130zM2.32 99.68a1.64 1.64 0 0 0 2.53 2l66.77-62a11.35 11.35 0 0 0 .6-16l-7.49-8.08A8.45 8.45 0 0 0 51.25 17zM107.85 219.33a15.23 15.23 0 0 0-17.45 5.08l-10.09 13.38a5.83 5.83 0 0 0 4.51 9.35l93.49 2.43a1.9 1.9 0 0 0 .71-3.67zM226.49 147.65a4.73 4.73 0 0 0-6.94-5.3l-95.85 55.31a5.83 5.83 0 0 0 .5 10.36l66.92 30.4a9.55 9.55 0 0 0 13.2-6.28zM74.21 215.48a11.75 11.75 0 0 0-2.06-16.19L6 146.19a2.07 2.07 0 0 0-3.08 2.67l47.64 80.84a7.54 7.54 0 0 0 12.54.68z"></path></g></g></svg></svg> <!----></g></g> <g transform="translate(67,4.671213150024414)"><g data-gra="path-name" fill-rule="" class="tp-name iconsvg-namesvg" transform="translate(0,0)"><g transform="scale(1)"><g><path d="M35.46 0.36L30.69 0.36 32.4-1.48 33.88-12.06 32.63-12.06 31-0.54 26.01-0.54 27.63-12.06 26.46-12.06 24.84-0.54 20.11-0.54 21.73-12.06 20.56-12.06 18.81 0.36 13.28 0.36 15.43-15.16 22.54-15.16 23.09-16.65 15.75-16.65 16.34-20.79 40.63-20.79 40.05-16.65 30.38-16.65 29.79-15.16 39.78-15.16 38.02-2.75Q37.84-1.44 37.1-0.54 36.36 0.36 35.46 0.36L35.46 0.36ZM2.88-19.53L5.63-19.53 6.71-27.18 4-27.18 4.54-31.18 16.47-31.18 15.93-27.18 13.46-27.18 12.38-19.53 14.67-19.53 14.04-14.98 11.74-14.98 10.62-6.88 12.96-7.42 12.33-3.06 0.14-0.4 0.72-4.68 3.65-5.31 5-14.98 2.25-14.98 2.88-19.53ZM23.67-31.14L22.9-25.74 25.7-25.74 26.37-30.46 25.2-31.86 32.98-31.86 32.13-25.74 34.56-25.74 35.32-31.18 41.22-31.18 39.96-22.23 16.52-22.23 17.77-31.14 23.67-31.14ZM70.25-21.29L77.94-21.29 77.63-19.17 81.04-19.17 80.46-14.89 77.04-14.89 76.36-10.17 68.13-6.34 79.29-0.36 65.61-0.36 60.84-2.92 55.35-0.36 41.67-0.36 54.45-6.34 47.3-10.17 47.97-14.89 44.55-14.89 45.13-19.17 48.55-19.17 48.87-21.29 56.56-21.29 56.25-19.17 69.93-19.17 70.25-21.29ZM72.13-22.59L72.5-25.15 55.39-25.15 55.03-22.59 45.63-22.59 46.57-29.43 60.25-29.43 60.39-30.33 58.95-31.99 69.16-31.99 68.8-29.43 82.48-29.43 81.54-22.59 72.13-22.59ZM61.78-9.76L69.12-13.18 69.34-14.89 55.66-14.89 55.44-13.18 61.78-9.76ZM85.59-15.62L93.47-15.62 93.6-16.56 87.48-16.56 88.06-20.61 94.19-20.61 94.27-21.29 88.83-21.29 90.36-31.99 122.76-31.99 121.23-21.29 116.86-21.29 116.78-20.61 121.95-20.61 121.36-16.56 116.19-16.56 116.05-15.62 122.85-15.62 122.35-11.83 117.72-11.83 121.63-6.93 117.09-6.93 115.97-5.85 107.19-5.85 110.61-9.27 111.51-9.22 109.44-11.83 97.78-11.83 95.49-9.49 96.7-9.54 99.09-5.89 89.28-5.89 88.97-6.3 84.11-6.3 86.94-9.18 86.89-9.27 87.03-9.27 89.59-11.83 85.09-11.83 85.59-15.62ZM102.91 0.32L96.39 0.32 98.91-2.25 100.13-11.12 107.59-11.12 106.42-2.65Q106.25-1.35 105.23-0.52 104.22 0.32 102.91 0.32L102.91 0.32ZM93.64 0.32L84.42 0.32 89.46-5.22 98.73-5.22 93.64 0.32ZM119.34 0.32L111.19 0.32 107.41-5.17 115.56-5.17 119.34 0.32ZM96.08-29.2L95.89-27.9 116.69-27.9 116.86-29.2 96.08-29.2ZM95.35-24.3L116.14-24.3 116.32-25.47 95.53-25.47 95.35-24.3ZM101.38-16.56L101.25-15.62 108.27-15.62 108.41-16.56 101.38-16.56ZM102.06-21.29L101.97-20.61 108.99-20.61 109.08-21.29 102.06-21.29ZM127.03-12.42L161.14-12.42 159.39-0.18 125.28-0.18 127.03-12.42ZM151.96-31.99L151.6-29.43 164.47-29.43 163.62-23.45 159.25-23.45 159.07-22.05 131.85-22.05 132.03-23.45 127.84-23.45 128.7-29.43 142.15-29.43 142.29-30.38 140.85-31.99 151.96-31.99ZM130.77-20.93L160.11-20.93 159.12-13.72 129.78-13.72 130.77-20.93ZM135.9-26.41L135.72-25.15 156.24-25.15 156.42-26.41 135.9-26.41ZM137.74-16.52L151.83-16.52 152.05-18.04 137.97-18.04 137.74-16.52ZM134.01-9.45L133.78-7.83 139-7.83 139.23-9.45 134.01-9.45ZM153.22-9.45L148.05-9.45 147.82-7.83 153-7.83 153.22-9.45ZM133.16-3.15L138.38-3.15 138.6-4.72 133.33-4.72 133.16-3.15ZM147.19-3.15L152.37-3.15 152.55-4.72 147.42-4.72 147.19-3.15Z" transform="translate(-0.14000000059604645, 31.989999771118164)"></path></g> <!----> <!----> <!----> <!----> <!----> <!----> <!----></g></g> <g data-gra="path-slogan" fill-rule="" class="tp-slogan iconsvg-slogansvg" fill="#3699ea" transform="translate(42.29500198364258,38.349998474121094)"><!----> <!----> <g transform="scale(1, 1)"><g transform="scale(1)"><path d="M5.02-3.70L2.20-3.70L2.20 0L1.03 0L1.03-8.58L5.02-8.58Q7.88-8.58 7.88-6.28L7.88-6.28Q7.88-4.88 6.66-4.22L6.66-4.22Q7.69-3.94 7.69-2.58L7.69-2.58L7.78-1.03Q7.73-0.38 8.20-0.19L8.20-0.19L8.20 0L6.75 0Q6.61-0.61 6.56-2.16L6.56-2.16Q6.61-3.70 5.02-3.70L5.02-3.70ZM5.11-7.64L2.20-7.64L2.20-4.69L4.92-4.69Q6.66-4.69 6.66-6.19L6.66-6.19Q6.66-7.64 5.11-7.64L5.11-7.64ZM15.19-3.19L15.19-8.58L16.36-8.58L16.36-3.05Q16.22 0.05 12.84 0.14L12.84 0.14Q9.70 0.05 9.56-2.86L9.56-2.86L9.56-8.58L10.73-8.58L10.73-3.19Q10.78-0.84 12.89-0.80L12.89-0.80Q15.19-0.84 15.19-3.19L15.19-3.19ZM18.33-8.58L19.50-8.58L19.50 0L18.33 0L18.33-8.58ZM27.14 0L26.30-2.48L22.83-2.48L21.94 0L20.77 0L24-8.58L25.31-8.58L28.41 0L27.14 0ZM24.56-7.31L23.20-3.52L25.88-3.52L24.61-7.31L24.56-7.31ZM30.84-8.58L35.16-1.64L35.16-8.58L36.28-8.58L36.28 0L34.97 0L30.61-6.94L30.56-6.94L30.56 0L29.44 0L29.44-8.58L30.84-8.58ZM44.63-7.64L42.56-7.64L42.56-4.97L44.63-4.97Q46.45-4.92 46.41-6.38L46.41-6.38Q46.41-7.64 44.63-7.64L44.63-7.64ZM45.09 0L41.39 0L41.39-8.58L45.19-8.58Q47.48-8.48 47.58-6.42L47.58-6.42Q47.58-5.16 46.45-4.64L46.45-4.64Q48.05-4.08 48.05-2.53L48.05-2.53Q47.91-0.09 45.09 0L45.09 0ZM44.81-3.98L42.56-3.98L42.56-0.98L45.05-0.98Q46.83-1.03 46.88-2.53L46.88-2.53Q46.88-3.98 44.81-3.98L44.81-3.98ZM55.03 0L54.19-2.48L50.72-2.48L49.83 0L48.66 0L51.89-8.58L53.20-8.58L56.30 0L55.03 0ZM52.45-7.31L51.09-3.52L53.77-3.52L52.50-7.31L52.45-7.31ZM64.13-4.27L64.13-4.27Q63.94-7.64 61.13-7.83L61.13-7.83Q58.27-7.69 58.13-4.27L58.13-4.27Q58.27-0.94 61.13-0.80L61.13-0.80Q63.94-0.98 64.13-4.27ZM65.30-4.27L65.30-4.27Q65.02 0 61.13 0.14L61.13 0.14Q57.19 0 56.91-4.27L56.91-4.27Q57.14-8.72 61.13-8.81L61.13-8.81Q65.02-8.67 65.30-4.27ZM72.19-3.89L67.97-3.89L67.97 0L66.80 0L66.80-8.58L72.75-8.58L72.75-7.59L67.97-7.59L67.97-4.92L72.19-4.92L72.19-3.89ZM79.59-3.19L79.59-8.58L80.77-8.58L80.77-3.05Q80.63 0.05 77.25 0.14L77.25 0.14Q74.11 0.05 73.97-2.86L73.97-2.86L73.97-8.58L75.14-8.58L75.14-3.19Q75.19-0.84 77.30-0.80L77.30-0.80Q79.59-0.84 79.59-3.19L79.59-3.19Z" transform="translate(-1.03125, 8.8125)"></path></g></g></g></g></g><defs v-gra="od"></defs></svg>